<svg width="24" height="24" viewBox="0 0 24 24" fill="none" xmlns="http://www.w3.org/2000/svg">
<path d="M12.0055 4.89374C13.958 2.94164 17.1233 2.9417 19.0758 4.89374C21.0284 6.84636 21.0284 10.0124 19.0758 11.965L19.0738 11.966C21.0262 13.9187 21.0264 17.0838 19.0738 19.0363C17.1215 20.9886 13.9562 20.9891 12.0035 19.0373C10.0508 20.9886 6.88637 20.9885 4.93419 19.0363C2.98185 17.084 2.98143 13.9187 4.93322 11.966L4.93224 11.965C2.97962 10.0124 2.97962 6.84636 4.93224 4.89374C6.88476 2.94167 10.05 2.94167 12.0026 4.89374L12.0035 4.89472L12.0055 4.89374Z" fill="#5189FA"/>
</svg>
