<svg width="181" height="64" viewBox="0 0 181 64" fill="none" xmlns="http://www.w3.org/2000/svg">
<g clip-path="url(#clip0_24375_4944)">
<g opacity="0.3">
<mask id="mask0_24375_4944" style="mask-type:alpha" maskUnits="userSpaceOnUse" x="0" y="-27" width="181" height="119">
<path d="M150 -21.8964C156.863 -28.7017 167.99 -28.701 174.853 -21.8954C181.715 -15.09 181.715 -4.05762 174.853 2.74812L174.855 2.75007C181.718 9.55579 181.718 20.5899 174.855 27.3956C167.992 34.2012 156.865 34.2012 150.002 27.3956L150.001 27.3946L150 27.3956C143.138 34.2013 132.01 34.2013 125.147 27.3956C118.284 20.5899 118.284 9.55574 125.147 2.75007L125.148 2.74812C118.287 -4.05774 118.287 -15.0903 125.15 -21.8954C132.012 -28.7007 143.137 -28.7009 150 -21.8964Z" fill="white"/>
<path d="M90.0004 -21.8964C96.8634 -28.7017 107.99 -28.701 114.853 -21.8954C121.715 -15.09 121.715 -4.05762 114.853 2.74812L114.855 2.75007C121.718 9.55579 121.718 20.5899 114.855 27.3956C107.992 34.2012 96.8653 34.2012 90.0024 27.3956L90.0014 27.3946L90.0004 27.3956C83.1375 34.2013 72.0098 34.2013 65.1469 27.3956C58.2843 20.5899 58.2844 9.55574 65.1469 2.75007L65.1479 2.74812C58.2867 -4.05774 58.2875 -15.0903 65.1499 -21.8954C72.0124 -28.7007 83.1374 -28.7009 90.0004 -21.8964Z" fill="white"/>
<path d="M30.0004 -21.8964C36.8634 -28.7017 47.9902 -28.701 54.853 -21.8954C61.7154 -15.09 61.7149 -4.05762 54.853 2.74812L54.8549 2.75007C61.7178 9.55579 61.7178 20.5899 54.8549 27.3956C47.992 34.2012 36.8653 34.2012 30.0024 27.3956L30.0014 27.3946L30.0004 27.3956C23.1375 34.2013 12.0098 34.2013 5.14692 27.3956C-1.71566 20.5899 -1.71562 9.55574 5.14692 2.75007L5.1479 2.74812C-1.71335 -4.05774 -1.71251 -15.0903 5.14985 -21.8954C12.0124 -28.7007 23.1374 -28.7009 30.0004 -21.8964Z" fill="white"/>
<path d="M150 37.6036C156.863 30.7983 167.99 30.799 174.853 37.6046C181.715 44.41 181.715 55.4424 174.853 62.2481L174.855 62.2501C181.718 69.0558 181.718 80.0899 174.855 86.8956C167.992 93.7012 156.865 93.7012 150.002 86.8956L150.001 86.8946L150 86.8956C143.138 93.7013 132.01 93.7013 125.147 86.8956C118.284 80.0899 118.284 69.0557 125.147 62.2501L125.148 62.2481C118.287 55.4423 118.287 44.4097 125.15 37.6046C132.012 30.7993 143.137 30.7991 150 37.6036Z" fill="white"/>
<path d="M90.0004 37.6036C96.8634 30.7983 107.99 30.799 114.853 37.6046C121.715 44.41 121.715 55.4424 114.853 62.2481L114.855 62.2501C121.718 69.0558 121.718 80.0899 114.855 86.8956C107.992 93.7012 96.8653 93.7012 90.0024 86.8956L90.0014 86.8946L90.0004 86.8956C83.1375 93.7013 72.0098 93.7013 65.1469 86.8956C58.2843 80.0899 58.2844 69.0557 65.1469 62.2501L65.1479 62.2481C58.2867 55.4423 58.2875 44.4097 65.1499 37.6046C72.0124 30.7993 83.1374 30.7991 90.0004 37.6036Z" fill="white"/>
<path d="M30.0004 37.6036C36.8634 30.7983 47.9902 30.799 54.853 37.6046C61.7154 44.41 61.7149 55.4424 54.853 62.2481L54.8549 62.2501C61.7178 69.0558 61.7178 80.0899 54.8549 86.8956C47.992 93.7012 36.8653 93.7012 30.0024 86.8956L30.0014 86.8946L30.0004 86.8956C23.1375 93.7013 12.0098 93.7013 5.14692 86.8956C-1.71566 80.0899 -1.71562 69.0557 5.14692 62.2501L5.1479 62.2481C-1.71335 55.4423 -1.71251 44.4097 5.14985 37.6046C12.0124 30.7993 23.1374 30.7991 30.0004 37.6036Z" fill="white"/>
</mask>
<g mask="url(#mask0_24375_4944)">
<rect y="-27" width="180" height="119" fill="url(#paint0_linear_24375_4944)"/>
</g>
</g>
</g>
<defs>
<linearGradient id="paint0_linear_24375_4944" x1="90" y1="-27" x2="90" y2="92" gradientUnits="userSpaceOnUse">
<stop stop-color="white" stop-opacity="0"/>
<stop offset="1" stop-color="white"/>
</linearGradient>
<clipPath id="clip0_24375_4944">
<rect width="181" height="64" fill="white"/>
</clipPath>
</defs>
</svg>
