<svg width="48" height="48" viewBox="0 0 48 48" fill="none" xmlns="http://www.w3.org/2000/svg">
<path d="M28.333 10.665C32.0667 10.665 33.9343 10.665 35.3604 11.3916C36.6145 12.0307 37.6343 13.0505 38.2734 14.3047C39.0001 15.7308 39 17.5983 39 21.332V23.332C39 27.0655 39 28.9324 38.2734 30.3584C37.6344 31.6126 36.6145 32.6323 35.3604 33.2715C33.9343 33.9981 32.0667 33.998 28.333 33.998H16.3574C15.9154 33.998 15.4913 34.1738 15.1787 34.4863L11.8447 37.8203C10.7948 38.8695 9.0002 38.1261 9 36.6416V21.332C9 17.5983 8.99994 15.7308 9.72656 14.3047C10.3657 13.0505 11.3855 12.0307 12.6396 11.3916C14.0657 10.665 15.9333 10.665 19.667 10.665H28.333ZM19 23.999C18.0795 23.999 17.333 24.7455 17.333 25.666C17.3333 26.5862 18.0797 27.332 19 27.332H24C24.9203 27.332 25.6667 26.5862 25.667 25.666C25.667 24.7455 24.9205 23.999 24 23.999H19ZM19 17.332C18.0795 17.332 17.333 18.0785 17.333 18.999C17.3331 19.9194 18.0796 20.666 19 20.666H29C29.9204 20.666 30.6669 19.9194 30.667 18.999C30.667 18.0785 29.9205 17.332 29 17.332H19Z" fill="url(#paint0_linear_1_5651)"/>
<defs>
<linearGradient id="paint0_linear_1_5651" x1="9" y1="24.4882" x2="39" y2="24.4882" gradientUnits="userSpaceOnUse">
<stop stop-color="#74A1FB"/>
<stop offset="1" stop-color="#C9DAFD"/>
</linearGradient>
</defs>
</svg>
