<svg width="48" height="48" viewBox="0 0 48 48" fill="none" xmlns="http://www.w3.org/2000/svg">
<path d="M19.9189 8.1377C22.4591 5.9523 26.2157 5.95221 28.7559 8.1377C29.8531 9.08171 31.2236 9.64948 32.667 9.75781C36.0086 10.0086 38.6652 12.6652 38.916 16.0068C39.0244 17.4501 39.5921 18.8208 40.5361 19.918C42.7215 22.4581 42.7215 26.2147 40.5361 28.7549C39.5921 29.8521 39.0244 31.2227 38.916 32.666C38.6652 36.0076 36.0086 38.6643 32.667 38.915C31.2236 39.0234 29.8531 39.5911 28.7559 40.5352C26.2157 42.7206 22.4591 42.7205 19.9189 40.5352C18.8218 39.5912 17.4511 39.0234 16.0078 38.915C12.6662 38.6643 10.0096 36.0076 9.75879 32.666C9.65043 31.2227 9.08266 29.8521 8.13867 28.7549C5.95314 26.2147 5.95314 22.4582 8.13867 19.918C9.08266 18.8208 9.65042 17.4502 9.75879 16.0068C10.0096 12.6652 12.6662 10.0086 16.0078 9.75781C17.4511 9.64942 18.8218 9.08165 19.9189 8.1377ZM33.0918 17.9424C32.3221 17.2497 31.1361 17.3123 30.4434 18.082L22.6514 26.7402L18.0381 22.8965C17.2426 22.2336 16.0594 22.3402 15.3965 23.1357C14.7337 23.9311 14.8415 25.1134 15.6367 25.7764L21.2676 30.4688C22.2481 31.2856 23.6988 31.1818 24.5527 30.2334L33.2314 20.5908C33.924 19.8211 33.8614 18.6351 33.0918 17.9424Z" fill="url(#paint0_linear_1_5664)"/>
<defs>
<linearGradient id="paint0_linear_1_5664" x1="15.4999" y1="30.9997" x2="41.9997" y2="9.9998" gradientUnits="userSpaceOnUse">
<stop stop-color="#EEF3FF"/>
<stop offset="1" stop-color="#A6C2FC"/>
</linearGradient>
</defs>
</svg>
