<svg width="48" height="48" viewBox="0 0 48 48" fill="none" xmlns="http://www.w3.org/2000/svg">
<path d="M20.3526 10.2707C23.114 5.48776 29.2304 3.84889 34.0133 6.61032C38.7959 9.37175 40.4342 15.4863 37.6732 20.2691L37.6699 20.272C42.4519 23.0336 44.0906 29.1483 41.3298 33.9308C38.5685 38.7134 32.4538 40.3513 27.671 37.5907C24.9092 42.3724 18.7965 44.0109 14.0141 41.25C9.23199 38.4891 7.59106 32.3748 10.3504 27.5922L10.348 27.5909C5.56595 24.8294 3.92747 18.7146 6.68817 13.9321C9.44959 9.14914 15.5659 7.51027 20.3489 10.2717L20.3526 10.2707Z" fill="url(#paint0_linear_1_5675)"/>
<defs>
<linearGradient id="paint0_linear_1_5675" x1="12.1628" y1="38.5316" x2="38.274" y2="31.5351" gradientUnits="userSpaceOnUse">
<stop stop-color="#A7C2FC"/>
<stop offset="1" stop-color="#C9DAFD"/>
</linearGradient>
</defs>
</svg>
