<svg viewBox="0 0 24 24" fill="none" xmlns="http://www.w3.org/2000/svg">
<g clip-path="url(#clip0_24375_4143)">
<path d="M12.793 7.20703L16.793 11.207L8 20H4V16L12.793 7.20703ZM16.5 4.67188C16.8713 4.67187 17.239 4.7447 17.582 4.88672C17.9251 5.02883 18.2374 5.23743 18.5 5.5C18.7626 5.76264 18.9711 6.07481 19.1133 6.41797C19.2554 6.76101 19.3281 7.12871 19.3281 7.5C19.3281 7.87143 19.2554 8.23985 19.1133 8.58301C18.9712 8.92602 18.7625 9.23744 18.5 9.5L18.207 9.79297L14.207 5.79297L14.5 5.5C14.7626 5.23743 15.0749 5.02883 15.418 4.88672C15.761 4.7447 16.1287 4.67188 16.5 4.67188Z" fill="currentColor"/>
</g>
<defs>
<clipPath id="clip0_24375_4143">
<rect width="24" height="24" fill="white"/>
</clipPath>
</defs>
</svg>
