<svg viewBox="0 0 16 16" fill="none" xmlns="http://www.w3.org/2000/svg">
<g clip-path="url(#clip0_24375_3959)">
<path d="M6.57077 2.4487C7.45984 1.68377 8.77448 1.68376 9.66354 2.4487C10.0476 2.7791 10.5275 2.97817 11.0327 3.01608C12.2021 3.10392 13.1314 4.03314 13.2192 5.2026C13.2571 5.70779 13.4562 6.18771 13.7866 6.57174C14.5515 7.46081 14.5515 8.77546 13.7866 9.66452C13.4562 10.0486 13.2571 10.5285 13.2192 11.0337C13.1314 12.2031 12.2021 13.1323 11.0327 13.2202C10.5275 13.2581 10.0476 13.4572 9.66354 13.7876C8.77449 14.5525 7.45983 14.5525 6.57077 13.7876C6.18674 13.4572 5.70682 13.2581 5.20163 13.2202C4.03217 13.1324 3.10295 12.2031 3.0151 11.0337C2.97719 10.5285 2.77813 10.0485 2.44772 9.66452C1.68279 8.77545 1.68279 7.46081 2.44772 6.57174C2.77814 6.18771 2.97719 5.70779 3.0151 5.2026C3.10292 4.03313 4.03215 3.1039 5.20163 3.01608C5.70682 2.97817 6.18674 2.77911 6.57077 2.4487ZM11.1811 5.88034C10.9117 5.63789 10.4968 5.65977 10.2544 5.92917L7.52682 8.95944L5.91257 7.61374C5.63415 7.38172 5.21979 7.41933 4.98776 7.69772C4.75574 7.97614 4.79334 8.3905 5.07175 8.62253L7.04245 10.2641C7.38567 10.5501 7.89396 10.5142 8.19284 10.1821L11.2299 6.8071C11.4724 6.5377 11.4505 6.12279 11.1811 5.88034Z" fill="#74A1FB"/>
</g>
<defs>
<clipPath id="clip0_24375_3959">
<rect width="14" height="14" fill="white" transform="translate(1 1)"/>
</clipPath>
</defs>
</svg>
