<svg viewBox="0 0 12 12" fill="none" xmlns="http://www.w3.org/2000/svg">
<path d="M6 1C8.76142 1 11 3.23858 11 6C11 8.76142 8.76142 11 6 11C3.23858 11 1 8.76142 1 6C1 3.23858 3.23858 1 6 1ZM6 2.09961C5.77909 2.09961 5.59961 2.27909 5.59961 2.5V6C5.59961 6.06403 5.61579 6.12403 5.64258 6.17773C5.6487 6.19005 5.6548 6.20231 5.66211 6.21387C5.66986 6.22607 5.67949 6.23678 5.68848 6.24805C5.69311 6.25388 5.6972 6.26007 5.70215 6.26562C5.71308 6.27787 5.72496 6.28898 5.7373 6.2998C5.74427 6.30594 5.7514 6.31174 5.75879 6.31738C5.76772 6.32419 5.77663 6.33087 5.78613 6.33691C5.7999 6.3457 5.81426 6.35327 5.8291 6.36035C5.83687 6.36405 5.84451 6.36789 5.85254 6.37109C5.86581 6.37639 5.87962 6.37992 5.89355 6.38379C5.90365 6.38659 5.91343 6.39057 5.92383 6.39258C5.92583 6.39297 5.92768 6.39417 5.92969 6.39453L6 6.40039H8.5L8.58105 6.3916C8.76309 6.35412 8.90039 6.19313 8.90039 6C8.90039 5.80687 8.76309 5.64588 8.58105 5.6084L8.5 5.59961H6.40039V2.5C6.40039 2.27909 6.22091 2.09961 6 2.09961Z" fill="#64748B"/>
</svg>
