<svg width="20" height="20" viewBox="0 0 20 20" fill="none" xmlns="http://www.w3.org/2000/svg">
<g clip-path="url(#clip0_24375_4029)">
<path d="M14.9923 3.47435C15.4804 3.64634 15.9031 3.96556 16.2021 4.38797C16.501 4.81038 16.6615 5.31517 16.6615 5.83268V15.8327C16.6615 16.4957 16.3981 17.1316 15.9292 17.6004C15.4604 18.0693 14.8245 18.3327 14.1615 18.3327H5.82812C5.16508 18.3327 4.5292 18.0693 4.06036 17.6004C3.59152 17.1316 3.32813 16.4957 3.32813 15.8327V5.83268C3.32804 5.31517 3.48855 4.81038 3.78753 4.38797C4.0865 3.96556 4.50919 3.64634 4.99729 3.47435C5.03383 4.33319 5.40074 5.14471 6.02141 5.73945C6.64207 6.33418 7.46851 6.66615 8.32812 6.66602H11.6615C12.4874 6.66609 13.284 6.3595 13.8968 5.80569C14.5096 5.25187 14.8949 4.49028 14.9781 3.66852L14.9923 3.47435ZM12.4948 12.4993H7.49479C7.27378 12.4993 7.06182 12.5871 6.90554 12.7434C6.74926 12.8997 6.66146 13.1117 6.66146 13.3327C6.66146 13.5537 6.74926 13.7657 6.90554 13.9219C7.06182 14.0782 7.27378 14.166 7.49479 14.166H12.4948C12.7158 14.166 12.9278 14.0782 13.084 13.9219C13.2403 13.7657 13.3281 13.5537 13.3281 13.3327C13.3281 13.1117 13.2403 12.8997 13.084 12.7434C12.9278 12.5871 12.7158 12.4993 12.4948 12.4993ZM12.4948 9.16602H7.49479C7.27378 9.16602 7.06182 9.25381 6.90554 9.41009C6.74926 9.56637 6.66146 9.77833 6.66146 9.99935C6.66146 10.2204 6.74926 10.4323 6.90554 10.5886C7.06182 10.7449 7.27378 10.8327 7.49479 10.8327H12.4948C12.7158 10.8327 12.9278 10.7449 13.084 10.5886C13.2403 10.4323 13.3281 10.2204 13.3281 9.99935C13.3281 9.77833 13.2403 9.56637 13.084 9.41009C12.9278 9.25381 12.7158 9.16602 12.4948 9.16602ZM11.6615 1.66602C12.1035 1.66602 12.5274 1.84161 12.84 2.15417C13.1525 2.46673 13.3281 2.89065 13.3281 3.33268C13.3281 3.77471 13.1525 4.19863 12.84 4.51119C12.5274 4.82375 12.1035 4.99935 11.6615 4.99935H8.32812C7.8861 4.99935 7.46217 4.82375 7.14961 4.51119C6.83705 4.19863 6.66146 3.77471 6.66146 3.33268C6.66146 2.89065 6.83705 2.46673 7.14961 2.15417C7.46217 1.84161 7.8861 1.66602 8.32812 1.66602H11.6615Z" fill="#CBD5E1"/>
</g>
<defs>
<clipPath id="clip0_24375_4029">
<rect width="20" height="20" fill="white"/>
</clipPath>
</defs>
</svg>
