<svg width="20" height="20" viewBox="0 0 20 20" fill="none" xmlns="http://www.w3.org/2000/svg">
<g clip-path="url(#clip0_24375_7248)">
<path d="M10.0017 1.66797C10.8857 1.66797 11.7336 2.01916 12.3587 2.64428C12.9838 3.2694 13.335 4.11725 13.335 5.0013C13.329 5.57629 13.2048 6.14389 12.97 6.6688L13.335 6.66797C13.5474 6.6682 13.7517 6.74953 13.9062 6.89534C14.0606 7.04115 14.1535 7.24043 14.166 7.45246C14.1784 7.6645 14.1095 7.87328 13.9731 8.03616C13.8368 8.19904 13.6434 8.30372 13.4325 8.3288L13.335 8.33464H12.2825L13.3158 13.1596C13.3619 13.3728 13.3224 13.5956 13.206 13.7801C13.0897 13.9645 12.9056 14.096 12.6933 14.1463L12.5992 14.163L12.5017 14.168H7.50168C7.38569 14.168 7.27097 14.1438 7.16485 14.097C7.05874 14.0501 6.96358 13.9817 6.88545 13.8959C6.80732 13.8102 6.74796 13.7091 6.71115 13.5991C6.67434 13.4891 6.66089 13.3726 6.67168 13.2571L6.68668 13.1596L7.72001 8.33464H6.66835C6.45595 8.3344 6.25165 8.25307 6.09721 8.10726C5.94276 7.96145 5.84982 7.76217 5.83737 7.55014C5.82492 7.3381 5.89391 7.12932 6.03023 6.96644C6.16656 6.80356 6.35993 6.69889 6.57085 6.6738L6.66835 6.66797H7.03335C6.85428 6.26452 6.73848 5.83587 6.69001 5.39714L6.67335 5.1813L6.66835 5.0013C6.66835 4.11725 7.01954 3.2694 7.64466 2.64428C8.26978 2.01916 9.11763 1.66797 10.0017 1.66797Z" fill="#CBD5E1"/>
<path d="M14.9974 15H4.9974C4.77638 15 4.56442 15.0878 4.40814 15.2441C4.25186 15.4004 4.16406 15.6123 4.16406 15.8333C4.16406 16.2754 4.33966 16.6993 4.65222 17.0118C4.96478 17.3244 5.3887 17.5 5.83073 17.5H14.1641C14.5727 17.5001 14.9671 17.3501 15.2724 17.0785C15.5776 16.8068 15.7725 16.4325 15.8199 16.0267L15.8291 15.8817C15.8356 15.7684 15.819 15.6549 15.7802 15.5483C15.7414 15.4417 15.6812 15.3441 15.6033 15.2615C15.5255 15.179 15.4315 15.1132 15.3274 15.0682C15.2232 15.0233 15.1109 15 14.9974 15Z" fill="#CBD5E1"/>
</g>
<defs>
<clipPath id="clip0_24375_7248">
<rect width="20" height="20" fill="white"/>
</clipPath>
</defs>
</svg>
