<svg width="20" height="20" viewBox="0 0 20 20" fill="none" xmlns="http://www.w3.org/2000/svg">
<path d="M11.5665 18.3327H8.44152C8.23319 18.3327 8.05264 18.2632 7.89986 18.1243C7.74708 17.9855 7.6568 17.8118 7.62902 17.6035L7.37902 15.666C7.19847 15.5966 7.02847 15.5132 6.86902 15.416C6.70902 15.3188 6.55264 15.2146 6.39986 15.1035L4.58736 15.8535C4.39291 15.923 4.19847 15.9299 4.00402 15.8743C3.80958 15.8188 3.6568 15.7007 3.54569 15.5202L2.00402 12.8327C1.89291 12.6521 1.85819 12.4577 1.89986 12.2493C1.94152 12.041 2.04569 11.8743 2.21236 11.7493L3.77486 10.5618C3.76097 10.4646 3.75402 10.3707 3.75402 10.2802V9.71768C3.75402 9.62768 3.76097 9.53407 3.77486 9.43685L2.21236 8.24935C2.04569 8.12435 1.94152 7.95768 1.89986 7.74935C1.85819 7.54102 1.89291 7.34657 2.00402 7.16602L3.54569 4.47852C3.64291 4.28407 3.79208 4.1624 3.99319 4.11352C4.19486 4.06518 4.39291 4.07574 4.58736 4.14518L6.39986 4.89518C6.55264 4.78407 6.71236 4.6799 6.87902 4.58268C7.04569 4.48546 7.21236 4.40213 7.37902 4.33268L7.62902 2.39518C7.6568 2.18685 7.74708 2.01324 7.89986 1.87435C8.05264 1.73546 8.23319 1.66602 8.44152 1.66602H11.5665C11.7749 1.66602 11.9554 1.73546 12.1082 1.87435C12.261 2.01324 12.3512 2.18685 12.379 2.39518L12.629 4.33268C12.8096 4.40213 12.9799 4.48546 13.1399 4.58268C13.2993 4.6799 13.4554 4.78407 13.6082 4.89518L15.4207 4.14518C15.6151 4.07574 15.8096 4.06879 16.004 4.12435C16.1985 4.1799 16.3512 4.29796 16.4624 4.47852L18.004 7.16602C18.1151 7.34657 18.1499 7.54102 18.1082 7.74935C18.0665 7.95768 17.9624 8.12435 17.7957 8.24935L16.2332 9.43685C16.2471 9.53407 16.254 9.62768 16.254 9.71768V10.2802C16.254 10.3707 16.2401 10.4646 16.2124 10.5618L17.7749 11.7493C17.9415 11.8743 18.0457 12.041 18.0874 12.2493C18.129 12.4577 18.0943 12.6521 17.9832 12.8327L16.4415 15.4993C16.3304 15.6799 16.1743 15.8016 15.9732 15.8643C15.7715 15.9266 15.5735 15.923 15.379 15.8535L13.6082 15.1035C13.4554 15.2146 13.2957 15.3188 13.129 15.416C12.9624 15.5132 12.7957 15.5966 12.629 15.666L12.379 17.6035C12.3512 17.8118 12.261 17.9855 12.1082 18.1243C11.9554 18.2632 11.7749 18.3327 11.5665 18.3327ZM10.0457 12.916C10.8512 12.916 11.5387 12.6313 12.1082 12.0618C12.6776 11.4924 12.9624 10.8049 12.9624 9.99935C12.9624 9.19379 12.6776 8.50629 12.1082 7.93685C11.5387 7.3674 10.8512 7.08268 10.0457 7.08268C9.22625 7.08268 8.53514 7.3674 7.97236 7.93685C7.41014 8.50629 7.12902 9.19379 7.12902 9.99935C7.12902 10.8049 7.41014 11.4924 7.97236 12.0618C8.53514 12.6313 9.22625 12.916 10.0457 12.916Z" fill="#94A3B8"/>
</svg>
