<svg width="16" height="16" viewBox="0 0 16 16" fill="none" xmlns="http://www.w3.org/2000/svg">
<path d="M10.6025 2.59961C12.5345 2.59961 14.0782 4.1317 14.1357 6.08398V6.2002C14.1357 7.24212 13.7321 8.14487 13.0635 8.75781L12.8691 8.93652V8.98047C12.7682 9.06604 12.6378 9.17783 12.4863 9.30957C12.1492 9.60273 11.6976 10.0004 11.2061 10.4336C10.2242 11.2989 9.08222 12.3083 8.35156 12.9395C8.17515 13.0862 7.90112 13.0865 7.72363 12.9414C6.99143 12.309 5.82824 11.2963 4.83887 10.4316C4.34328 9.99852 3.89142 9.6028 3.55957 9.31152C3.40943 9.17974 3.28997 9.07349 3.20215 8.99609V8.95117L3.02734 8.77539C2.33358 8.08163 1.9356 7.16559 1.93555 6.2002V6.08496C1.99233 4.21111 3.59201 2.66699 5.46973 2.66699C5.7479 2.6671 6.1166 2.76392 6.48438 2.96191C6.83628 3.1514 7.14432 3.41108 7.34668 3.7002C7.64347 4.30642 8.5192 4.29878 8.80176 3.67773C8.96702 3.37509 9.26663 3.10098 9.62793 2.89941C9.99552 2.69441 10.3622 2.59963 10.6025 2.59961Z" stroke="#94A3B8" stroke-width="1.2"/>
</svg>
