<svg width="660" height="300" viewBox="0 0 660 300" fill="none" xmlns="http://www.w3.org/2000/svg">
<path d="M241 268C241 212.772 285.772 168 341 168H420C461.421 168 495 201.579 495 243C495 261.225 480.225 276 462 276H241V268Z" fill="#94A3B8"/>
<path d="M356.781 174.976L350 153.024L395 139V161.167C395 169.931 391.491 178.954 383.504 182.563C369.022 189.107 359.922 181.062 356.781 174.976Z" fill="#CBD5E1"/>
<path d="M414.883 100.5C401.883 136.5 387.883 162 359.383 162C328.731 162 312.383 162 303.883 100.5C303.883 66.5345 328.731 39 359.383 39C390.035 39 414.883 66.5345 414.883 100.5Z" fill="#E2E8F0"/>
<path d="M408.651 110.047C359.361 122.768 332.274 97.0105 324.891 82.5413C303.305 92.1682 306.339 115.682 308.89 127C286.742 96.0556 297.913 66.6395 307.173 49.4484C323.42 19.2841 387.497 6.93389 417.5 49.4488C430.778 68.2646 428.68 82.6763 424.883 101.5C421.655 117.502 404.919 146.5 394.452 143L408.651 110.047Z" fill="#64748B"/>
<ellipse cx="344.378" cy="124.718" rx="2.5" ry="4" transform="rotate(-2.31066 344.378 124.718)" fill="#64748B"/>
<ellipse cx="330.386" cy="125.283" rx="2.5" ry="4" transform="rotate(-2.31066 330.386 125.283)" fill="#64748B"/>
<path d="M411.013 98.1634C400.471 81.8331 395.2 101.783 393.883 113.799L400.032 129C408.084 125.525 421.554 114.494 411.013 98.1634Z" fill="#E2E8F0"/>
<path d="M220.332 206.763C220.815 203.871 223.318 201.752 226.25 201.752H283.066C283.066 194.482 288.96 188.588 296.23 188.588H338.034C341.689 188.588 344.495 191.828 343.973 195.445L331.638 280.857C331.212 283.809 328.682 286 325.7 286H214.186C210.478 286 207.658 282.669 208.268 279.011L220.332 206.763Z" fill="url(#paint0_linear_1_1714)"/>
<path d="M187.095 200.828C186.501 197.178 189.319 193.864 193.017 193.864H251.984C251.984 185.102 259.087 178 267.848 178H312.784C315.778 178 318.314 180.208 318.727 183.174L332.065 279.174C332.566 282.782 329.764 286 326.122 286H206.068C203.127 286 200.619 283.868 200.146 280.964L187.095 200.828Z" fill="url(#paint1_linear_1_1714)"/>
<path d="M248.258 248.476L247.872 243.001C247.705 240.164 249.515 237.875 252.676 236.057C256.707 233.908 260.563 232.162 260.28 228.751C260.124 226.885 258.083 225.565 254.656 225.85C251.847 226.084 248.89 227.043 246.87 230.126C245.523 232.182 241.843 232.747 239.227 231.151C236.963 229.655 236.279 226.407 237.225 224.514C239.929 219.689 245.017 216.156 253.789 215.426C266.809 214.343 272.567 223 272.132 229.385C271.527 238.701 263.395 241.321 261.304 242.726C260.509 243.116 259.824 244.015 259.91 245.044L260.072 247.817C260.329 250.906 256.387 252.464 254.036 252.401C251.131 252.319 248.488 251.243 248.258 248.476ZM261.96 263.879C262 266.856 258.881 268.346 255.855 268.469C251.933 268.6 250.244 266.538 250.142 265.316C249.992 263.514 249.853 261.841 249.693 260.753C249.326 257.997 252.339 256.062 255.08 255.834C258.712 255.532 261.218 256.619 261.564 259.117C261.824 260.586 261.889 262.2 261.96 263.879Z" fill="#F1F5F9"/>
<path d="M181.636 228.837C181.285 226.656 182.768 224.603 184.949 224.252L192.847 222.979C203.752 221.223 214.017 228.639 215.773 239.544L218 253.366C219.756 264.271 212.34 274.536 201.435 276.292L193.536 277.564C191.355 277.916 189.302 276.432 188.951 274.251L181.636 228.837Z" fill="#E2E8F0"/>
<path d="M349.304 230.896C349.645 228.714 348.153 226.668 345.97 226.326L338.066 225.09C327.153 223.384 316.923 230.847 315.216 241.76L313.053 255.592C311.346 266.505 318.81 276.735 329.723 278.442L337.627 279.678C339.809 280.019 341.855 278.527 342.197 276.344L349.304 230.896Z" fill="#E2E8F0"/>
<path d="M237.394 104H145.5C167.1 104 192.5 142.667 195 162H286.5C281.985 132.481 262.069 114.395 248.935 106.759C245.452 104.733 241.423 104 237.394 104Z" fill="#CBD5E1"/>
<path d="M490.871 150H530C519.123 150 500.259 185.333 499 203H459C460.84 181.168 467.761 166.179 473.839 157.558C477.657 152.143 484.245 150 490.871 150Z" fill="#CBD5E1"/>
<path d="M141 104H238C228 104 221.833 110 220 113H126C128 107 136.833 104.5 141 104Z" fill="#E2E8F0"/>
<defs>
<linearGradient id="paint0_linear_1_1714" x1="214.569" y1="268.785" x2="323.709" y2="268.785" gradientUnits="userSpaceOnUse">
<stop stop-color="#8AAEFB"/>
<stop offset="1" stop-color="#B1CAFC"/>
</linearGradient>
<linearGradient id="paint1_linear_1_1714" x1="193.926" y1="266.914" x2="310.342" y2="266.914" gradientUnits="userSpaceOnUse">
<stop stop-color="#A7C2FC"/>
<stop offset="1" stop-color="#C9DAFD"/>
</linearGradient>
</defs>
</svg>
